# File created by Blade
# Date/Time:  Tue Jan 27 19:54:25 2015
# Frame Rate: 120.000 fps
#------------------------------------------------------
:FULLY-SPECIFIED
:DEGREES
3669
root 4.059306 35.350522 -1.648728 53.096832 -15.350265 -46.280371
Spine -0.293039 29.474846 5.890807
Head -49.366847 4.925928 13.879086
LeftShoulder -19.664618 -2.654905 37.457124
LeftArm -23.019718 -66.198242 -38.986662
LeftForeArm -82.980302 0.000000 137.647824
LeftHand 9.346992 0.000000 -36.971889
LeftHandThumb1 -26.253704 0.000000 33.147579
RightShoulder -9.790547 -2.980527 -17.400259
RightArm 25.533355 -39.114103 77.192629
RightForeArm -28.004421 0.000000 24.294409
RightHand 17.543311 -0.000000 10.034940
RightHandThumb1 -24.326973 -0.000000 -32.862282
LeftUpLeg -23.786342 22.931946 34.742718
LeftLeg -5.400655 -0.000000 0.000000
LeftFoot -14.233739 14.309035 -18.633376
LeftToeBase 22.182653 -0.000000 -0.000000
RightUpLeg 35.119957 -32.758603 -42.127126
RightLeg 46.683547 -0.000000 -0.000000
RightFoot 38.029505 -22.295632 17.455785
RightToeBase 15.574461 -0.000000 -0.000000
3670
root 4.079500 35.360086 -1.665256 53.377734 -15.540042 -46.463841
Spine -0.413997 29.618209 5.798659
Head -49.478051 4.972946 13.724822
LeftShoulder -19.755437 -2.499704 37.394215
LeftArm -22.763039 -66.263176 -39.163501
LeftForeArm -82.964972 0.000000 137.724631
LeftHand 9.286117 -0.000000 -37.003823
LeftHandThumb1 -26.253704 0.000000 33.147579
RightShoulder -9.740066 -2.829550 -17.481088
RightArm 25.452043 -39.103459 77.253578
RightForeArm -27.969034 0.000000 24.332202
RightHand 17.583239 -0.000000 10.050659
RightHandThumb1 -24.326973 -0.000000 -32.862282
LeftUpLeg -23.879909 23.221207 34.695972
LeftLeg -5.311467 -0.000000 0.000000
LeftFoot -14.266007 14.336186 -18.607640
LeftToeBase 22.131903 -0.000000 -0.000000
RightUpLeg 35.479351 -32.660744 -41.962103
RightLeg 42.966920 -0.000000 -0.000000
RightFoot 38.373051 -21.931143 17.104805
RightToeBase 15.255971 -0.000000 -0.000000
3671
root 4.101957 35.369315 -1.683512 53.688790 -15.761086 -46.660641
Spine -0.560467 29.801774 5.664041
Head -49.587929 5.029970 13.581407
LeftShoulder -19.818586 -2.429402 37.348656
LeftArm -22.719282 -66.256002 -39.107948
LeftForeArm -83.057146 0.000000 137.801087
LeftHand 9.275784 -0.000000 -36.886926
LeftHandThumb1 -26.253704 0.000000 33.147579
RightShoulder -9.685449 -2.784170 -17.532969
RightArm 25.471906 -39.046174 77.242669
RightForeArm -27.846315 0.000000 24.383035
RightHand 17.614204 -0.000000 10.058894
RightHandThumb1 -24.326973 -0.000000 -32.862282
LeftUpLeg -23.957918 23.521880 34.634217
LeftLeg -5.259931 -0.000000 0.000000
LeftFoot -14.288358 14.403158 -18.570156
LeftToeBase 22.175173 -0.000000 -0.000000
RightUpLeg 35.731000 -32.475805 -41.688167
RightLeg 39.263573 -0.000000 -0.000000
RightFoot 38.557184 -21.689371 16.967199
RightToeBase 15.339668 -0.000000 -0.000000
3672
root 4.128198 35.378786 -1.706771 54.024249 -15.983906 -46.859195
Spine -0.715294 29.996984 5.517660
Head -49.719771 5.096924 13.437784
LeftShoulder -19.885026 -2.451340 37.340267
LeftArm -22.786056 -66.172626 -38.955450
LeftForeArm -83.119737 -0.000000 137.863463
LeftHand 9.289459 -0.000000 -36.779103
LeftHandThumb1 -26.253704 0.000000 33.147579
RightShoulder -9.637912 -2.733697 -17.555072
RightArm 25.401304 -38.566968 77.308166
RightForeArm -26.662662 -0.000000 24.464513
RightHand 18.225568 -0.000000 12.290755
RightHandThumb1 -24.326973 -0.000000 -32.862282
LeftUpLeg -24.044404 23.758311 34.603993
LeftLeg -5.214864 -0.000000 0.000000
LeftFoot -14.345496 14.550901 -18.558590
LeftToeBase 22.211668 -0.000000 -0.000000
RightUpLeg 35.878115 -32.175852 -41.246022
RightLeg 35.598677 -0.000000 -0.000000
RightFoot 38.624509 -21.343175 16.834727
RightToeBase 15.845834 -0.000000 -0.000000
3673
root 4.154492 35.390094 -1.732974 54.347334 -16.137182 -47.069521
Spine -0.815851 30.194243 5.491201
Head -49.880293 5.106685 13.230442
LeftShoulder -19.924963 -2.491566 37.290753
LeftArm -22.897602 -66.118628 -38.765769
LeftForeArm -83.098007 0.000000 137.882653
LeftHand 9.216148 -0.000000 -37.013532
LeftHandThumb1 -26.253704 0.000000 33.147579
RightShoulder -9.606396 -2.746926 -17.634837
RightArm 25.494767 -38.557045 77.215776
RightForeArm -26.514842 -0.000000 24.512856
RightHand 18.150236 0.000000 12.211749
RightHandThumb1 -24.326973 -0.000000 -32.862282
LeftUpLeg -24.152830 23.966551 34.631738
LeftLeg -5.161000 -0.000000 0.000000
LeftFoot -14.298273 14.711044 -18.348896
LeftToeBase 21.955222 -0.000000 -0.000000
RightUpLeg 35.981534 -31.718623 -40.549181
RightLeg 31.915186 -0.000000 -0.000000
RightFoot 38.715757 -21.078085 16.788225
RightToeBase 16.253897 -0.000000 -0.000000
3674
root 4.182977 35.400253 -1.763287 54.680864 -16.295473 -47.271671
Spine -0.924113 30.391828 5.446170
Head -50.035982 5.131796 13.002235
LeftShoulder -19.945285 -2.503573 37.235396
LeftArm -23.029895 -66.152012 -38.564128
LeftForeArm -83.180088 -0.000000 137.863173
LeftHand 9.323958 -0.000000 -37.080652
LeftHandThumb1 -26.253704 0.000000 33.147579
RightShoulder -9.551455 -2.730799 -17.719943
RightArm 25.558420 -38.678156 77.125976
RightForeArm -26.851792 -0.000000 24.519763
RightHand 17.883096 -0.000000 11.254140
RightHandThumb1 -24.326973 -0.000000 -32.862282
LeftUpLeg -24.275801 24.138807 34.672591
LeftLeg -5.098243 -0.000000 0.000000
LeftFoot -14.424390 14.870634 -18.497590
LeftToeBase 22.043676 -0.000000 -0.000000
RightUpLeg 35.981087 -31.111436 -39.704298
RightLeg 28.341998 -0.000000 -0.000000
RightFoot 38.826706 -20.801681 16.733225
RightToeBase 16.524192 -0.000000 -0.000000
3675
root 4.210794 35.409680 -1.796968 55.028105 -16.453552 -47.480167
Spine -1.049346 30.592457 5.382614
Head -50.174080 5.183743 12.809501
LeftShoulder -19.987813 -2.469727 37.193835
LeftArm -22.998558 -66.242916 -38.529456
LeftForeArm -83.306039 -0.000000 137.823772
LeftHand 9.348023 0.000000 -37.143271
LeftHandThumb1 -26.253704 0.000000 33.147579
RightShoulder -9.487644 -2.688905 -17.781283
RightArm 25.590670 -38.795569 77.046274
RightForeArm -27.306838 -0.000000 24.488500
RightHand 17.850548 -0.000000 10.260936
RightHandThumb1 -24.326973 -0.000000 -32.862282
LeftUpLeg -24.411420 24.356013 34.692109
LeftLeg -5.054611 -0.000000 0.000000
LeftFoot -14.461496 14.957140 -18.554789
LeftToeBase 22.002840 -0.000000 -0.000000
RightUpLeg 35.871186 -30.321330 -38.675892
RightLeg 24.867338 -0.000000 -0.000000
RightFoot 38.907312 -20.803857 16.701033
RightToeBase 16.677578 -0.000000 -0.000000
3676
root 4.237946 35.420221 -1.836485 55.385179 -16.563601 -47.682635
Spine -1.184036 30.722975 5.347548
Head -50.285807 5.294541 12.624472
LeftShoulder -20.037179 -2.418194 37.177647
LeftArm -23.095014 -66.397383 -38.398739
LeftForeArm -83.444977 -0.000000 137.754855
LeftHand 9.321711 -0.000000 -37.315415
LeftHandThumb1 -26.253704 0.000000 33.147579
RightShoulder -9.370472 -2.591104 -17.866696
RightArm 25.520107 -38.744375 77.086016
RightForeArm -27.381954 -0.000000 24.458492
RightHand 17.769760 0.000000 10.055318
RightHandThumb1 -24.326973 -0.000000 -32.862282
LeftUpLeg -24.607940 24.542335 34.747276
LeftLeg -4.962140 -0.000000 0.000000
LeftFoot -14.537555 15.090052 -18.587080
LeftToeBase 21.972970 -0.000000 -0.000000
RightUpLeg 35.703982 -29.394657 -37.498505
RightLeg 21.572766 -0.000000 -0.000000
RightFoot 38.628474 -21.202610 16.852959
RightToeBase 16.730601 -0.000000 -0.000000
3677
root 4.270367 35.424755 -1.875712 55.742679 -16.691834 -47.807513
Spine -1.355717 30.856668 5.227183
Head -50.395064 5.368511 12.471825
LeftShoulder -20.038823 -2.529293 37.196657
LeftArm -23.515441 -66.467143 -37.945169
LeftForeArm -83.550014 -0.000000 137.698334
LeftHand 9.381156 -0.000000 -37.388552
LeftHandThumb1 -26.253704 0.000000 33.147579
RightShoulder -9.323595 -2.547405 -17.915389
RightArm 25.497337 -38.633234 77.103075
RightForeArm -27.436379 -0.000000 24.389377
RightHand 17.762820 -0.000000 10.121101
RightHandThumb1 -24.326973 -0.000000 -32.862282
LeftUpLeg -24.849786 24.648091 34.726730
LeftLeg -4.887568 -0.000000 0.000000
LeftFoot -14.601582 15.306950 -18.546955
LeftToeBase 21.918722 -0.000000 -0.000000
RightUpLeg 35.534237 -28.454138 -36.425253
RightLeg 18.474713 -0.000000 -0.000000
RightFoot 38.145991 -21.839734 16.964567
RightToeBase 17.265595 -0.000000 -0.000000
3678
root 4.303015 35.424186 -1.912301 56.062246 -16.807255 -47.861614
Spine -1.523604 30.920330 5.077674
Head -50.491776 5.456863 12.360704
LeftShoulder -20.065001 -2.641966 37.226270
LeftArm -23.859896 -66.515908 -37.576506
LeftForeArm -83.697279 0.000000 137.648813
LeftHand 9.388950 -0.000000 -37.381887
LeftHandThumb1 -26.253704 0.000000 33.147579
RightShoulder -9.284402 -2.526679 -17.942209
RightArm 25.495464 -38.563374 77.078442
RightForeArm -27.493704 -0.000000 24.339461
RightHand 17.808137 -0.000000 10.091543
RightHandThumb1 -24.326973 -0.000000 -32.862282
LeftUpLeg -25.090200 24.674533 34.666230
LeftLeg -4.857434 -0.000000 0.000000
LeftFoot -14.654798 15.536434 -18.474096
LeftToeBase 21.959987 -0.000000 -0.000000
RightUpLeg 35.415132 -27.525929 -35.468729
RightLeg 15.619679 -0.000000 -0.000000
RightFoot 37.777154 -22.351699 16.746742
RightToeBase 17.252098 -0.000000 -0.000000
3679
root 4.333046 35.424266 -1.952232 56.363668 -16.869885 -47.911602
Spine -1.667643 30.970712 4.978075
Head -50.599808 5.542297 12.269363
LeftShoulder -20.088813 -2.553871 37.208584
LeftArm -23.735500 -66.743902 -37.685191
LeftForeArm -83.808620 -0.000000 137.610815
LeftHand 9.344690 -0.000000 -37.314002
LeftHandThumb1 -26.253704 0.000000 33.147579
RightShoulder -9.249101 -2.423823 -17.985607
RightArm 25.375475 -38.488758 77.126812
RightForeArm -27.498822 -0.000000 24.270770
RightHand 17.868160 -0.000000 10.165116
RightHandThumb1 -24.326973 -0.000000 -32.862282
LeftUpLeg -25.385247 24.743696 34.600567
LeftLeg -4.793185 -0.000000 0.000000
LeftFoot -14.660155 15.694862 -18.277497
LeftToeBase 21.740289 -0.000000 -0.000000
RightUpLeg 35.349556 -26.685842 -34.605944
RightLeg 13.003373 -0.000000 -0.000000
RightFoot 37.361172 -22.900148 16.693588
RightToeBase 17.014027 -0.000000 -0.000000
3680
root 4.362077 35.424112 -1.992395 56.638063 -16.901444 -47.937062
Spine -1.775968 30.962232 4.911779
Head -50.711139 5.640029 12.146527
LeftShoulder -20.108691 -2.556311 37.188181
LeftArm -23.884684 -66.916019 -37.488661
LeftForeArm -83.919418 -0.000000 137.586284
LeftHand 9.202876 -0.000000 -37.275681
LeftHandThumb1 -26.253704 0.000000 33.147579
RightShoulder -9.202419 -2.470489 -17.995785
RightArm 25.445841 -38.367890 77.073541
RightForeArm -27.606202 -0.000000 24.198458
RightHand 17.661947 -0.000000 10.095643
RightHandThumb1 -24.326973 -0.000000 -32.862282
LeftUpLeg -25.703104 24.828931 34.518062
LeftLeg -4.749747 -0.000000 0.000000
LeftFoot -14.741207 15.822440 -18.337721
LeftToeBase 21.939378 -0.000000 -0.000000
RightUpLeg 35.291638 -25.872972 -33.782449
RightLeg 10.675209 -0.000000 -0.000000
RightFoot 37.060492 -23.312668 16.678908
RightToeBase 17.280136 -0.000000 -0.000000
3681
root 4.394354 35.423503 -2.033581 56.908111 -16.933594 -47.938070
Spine -1.869890 30.961516 4.843679
Head -50.842369 5.731913 11.989880
LeftShoulder -20.096463 -2.654038 37.175757
LeftArm -24.222525 -67.037736 -37.100202
LeftForeArm -84.084487 -0.000000 137.564676
LeftHand 9.201365 0.000000 -37.203496
LeftHandThumb1 -26.253704 0.000000 33.147579
RightShoulder -9.172766 -2.528354 -18.042377
RightArm 25.484195 -38.183462 77.090671
RightForeArm -27.672363 0.000000 24.113223
RightHand 17.793024 0.000000 10.032196
RightHandThumb1 -24.326973 -0.000000 -32.862282
LeftUpLeg -26.013729 24.832261 34.454500
LeftLeg -4.705263 -0.000000 0.000000
LeftFoot -14.715108 15.943890 -18.199494
LeftToeBase 21.780712 -0.000000 -0.000000
RightUpLeg 35.167793 -25.162693 -33.071255
RightLeg 8.730339 -0.000000 -0.000000
RightFoot 36.959351 -23.408143 16.481045
RightToeBase 18.201553 -0.000000 -0.000000
